<?xml version="1.0" encoding="UTF-8"?>
<svg height="16px" viewBox="0 0 16 16" width="16px" xmlns="http://www.w3.org/2000/svg">
    <path d="m 8.203125 6.152344 c 2.449219 -1.039063 5.289063 -0.625 5.40625 2.636718 c 0.046875 1.382813 -0.816406 6.335938 -5.40625 5.253907 c -0.15625 -0.039063 -0.257813 -0.078125 -0.46875 0 c -3.144531 1.136719 -4.925781 -3.378907 -4.949219 -4.933594 c -0.050781 -3.433594 3 -3.820313 5.417969 -2.957031 z m 0.46875 -2.917969 l -0.136719 -0.847656 c -0.0625 -0.382813 -0.242187 -1.929688 -0.535156 -2.191407 c -0.339844 -0.300781 -3.179688 0.320313 -2.636719 1.132813 c 0.804688 1.207031 1.078125 1.382813 1.644531 2.507813 c -3.585937 -0.75 -6.367187 1.726562 -6.113281 5.207031 c 0.121094 1.695312 2.160157 8.230469 7.074219 6.589843 c 5.179688 1.757813 7.539062 -4.597656 7.464844 -6.882812 c -0.054688 -1.683594 -1.148438 -4.652344 -4.164063 -4.582031 c 1.542969 -0.625 2.144531 -2.5625 1.644531 -3.636719 c -1.695312 -0.207031 -3.667968 0.214844 -4.242187 2.703125 z m 0 0" fill-rule="evenodd"/>
</svg>
